<svg viewBox="0 0 259 141" xmlns="http://www.w3.org/2000/svg" fill-rule="evenodd" clip-rule="evenodd" stroke-linejoin="round" stroke-miterlimit="2"><path d="M0 139.855h36.563s5.759.402 11.518-6.696S105.067 2.344 105.067 2.344 101.532.072 98.527.072c-3.002 0-37.053-.038-37.053-.038L0 139.853z" fill="#1089ff" fill-rule="nonzero"/><path d="M152.557 110.672h-35.608s-4.262-.48-7.387-3.08L153.882.033 192.33.14c3.03.008 6.772 3.165 6.772 3.165s-.805.58-46.546 107.367z" fill="#7f2aff" fill-rule="nonzero"/><path d="M61.474.033L98.504 0s7.032.033 9.978 6.462c2.947 6.428 44.063 104.465 44.063 104.465h-35.09s-9.91-2.01-12.99-7.903C101.384 97.133 61.474.035 61.474.035z" fill="#ffb85f" fill-rule="nonzero"/><path d="M61.473.033s34.052.038 37.055.038 6.539 2.272 6.539 2.272S95.176 26.23 83.596 53.62C72.625 27.164 61.473.033 61.473.033z" fill="#e3a762" fill-rule="nonzero"/><path d="M130.152 57.621a56663.298 56663.298 0 0122.286 53.051h-35.49s-.695-.078-1.73-.343a30.417 30.417 0 01-3.508-1.324 12.088 12.088 0 01-2.148-1.413l20.59-49.97z" fill="#ed9b63" fill-rule="nonzero"/><path d="M153.882.033l54.549 129.714s5.682 10.037 11.553 10.037c5.872 0 38.828.387 38.828.387L203.317 8.334S198.44.13 192 .13 153.882.034 153.882.034z" fill="#ff476e" fill-rule="nonzero"/><path d="M153.882.033h.013c.537.002 17.4.053 28.844.08l9.592.027.085.001c.319.018.635.055.946.11 2.532.51 5.207 2.62 5.67 2.997l.035.03.033.03c-.049.068-1.169 1.931-22.363 51.074L153.882.033z" fill="#ed2270" fill-rule="nonzero"/></svg>
