<?xml version="1.0" encoding="UTF-8" standalone="no"?>
<svg
   xmlns:dc="http://purl.org/dc/elements/1.1/"
   xmlns:cc="http://creativecommons.org/ns#"
   xmlns:rdf="http://www.w3.org/1999/02/22-rdf-syntax-ns#"
   xmlns:svg="http://www.w3.org/2000/svg"
   xmlns="http://www.w3.org/2000/svg"
   xmlns:sodipodi="http://sodipodi.sourceforge.net/DTD/sodipodi-0.dtd"
   xmlns:inkscape="http://www.inkscape.org/namespaces/inkscape"
   id="svg2"
   viewBox="0 0 16 16"
   height="16"
   width="16"
   version="1.1"
   sodipodi:docname="hotel.svg"
   inkscape:version="0.92.2 5c3e80d, 2017-08-06">
  <sodipodi:namedview
     pagecolor="#ffffff"
     bordercolor="#666666"
     borderopacity="1"
     objecttolerance="10"
     gridtolerance="10"
     guidetolerance="10"
     inkscape:pageopacity="0"
     inkscape:pageshadow="2"
     inkscape:window-width="1180"
     inkscape:window-height="689"
     id="namedview5180"
     showgrid="false"
     inkscape:zoom="16.857143"
     inkscape:cx="4.4881805"
     inkscape:cy="5.1814972"
     inkscape:window-x="0"
     inkscape:window-y="0"
     inkscape:window-maximized="0"
     inkscape:current-layer="svg2" />
  <metadata
     id="metadata8">
    <rdf:RDF>
      <cc:Work
         rdf:about="">
        <dc:format>image/svg+xml</dc:format>
        <dc:type
           rdf:resource="http://purl.org/dc/dcmitype/StillImage" />
        <dc:title></dc:title>
      </cc:Work>
    </rdf:RDF>
  </metadata>
  <defs
     id="defs6" />
  <rect
     style="visibility:hidden;fill:none;stroke:none"
     id="canvas"
     y="2"
     x="0"
     height="14"
     width="14" />
  <path
     id="hotel"
     d="M 0.5714286,3.357142 C 0.2548572,3.357142 0,3.612 0,3.928572 V 4.5 9.071428 10.214286 10.785714 12.5 H 1.142858 V 10.785714 10.214286 H 14.85714 V 11.92858 12.5 H 15.42858 16 V 11.92858 10.214286 9.071428 6.785714 6.214286 c 0,-0.316572 -0.25486,-0.571428 -0.57142,-0.571428 -0.31658,0 -0.57144,0.254856 -0.57144,0.571428 V 6.785714 9.071428 H 1.142858 V 4.5 3.928572 C 1.142858,3.612 0.888,3.357142 0.5714286,3.357142 Z M 4,4.5 c -0.946773,0 -1.714286,0.767511 -1.714286,1.714286 0,0.946773 0.767513,1.714286 1.714286,1.714286 0.946773,0 1.714286,-0.767513 1.714286,-1.714286 C 5.714286,5.267511 4.946773,4.5 4,4.5 Z m 2.857142,1.142858 v 2.285714 h 6.857138 c 0,-1.142858 -1.184195,-2.285714 -2.2857,-2.285714 z"
     style="fill:#0092da;stroke-width:1.14285803"
     inkscape:connector-curvature="0" />
</svg>
