<svg xmlns="http://www.w3.org/2000/svg" xml:space="preserve" style="fill-rule:evenodd;clip-rule:evenodd;stroke-linecap:round;stroke-linejoin:round;stroke-miterlimit:1.5" viewBox="0 0 43 44"><circle cx="28.148" cy="30.262" r="17.82" style="fill:currentColor;stroke:#fff;stroke-width:1.48px" transform="translate(-9.747 -5.945)scale(1.01633)"/><path d="M15.5 5.5c1.1 0 2-.9 2-2s-.9-2-2-2-2 .9-2 2 .9 2 2 2M5 12c-2.8 0-5 2.2-5 5s2.2 5 5 5 5-2.2 5-5-2.2-5-5-5m0 8.5c-1.9 0-3.5-1.6-3.5-3.5s1.6-3.5 3.5-3.5 3.5 1.6 3.5 3.5-1.6 3.5-3.5 3.5m5.8-10 2.4-2.4.8.8c1.3 1.3 3 2.1 5.1 2.1V9c-1.5 0-2.7-.6-3.6-1.5l-1.9-1.9c-.5-.4-1-.6-1.6-.6s-1.1.2-1.4.6L7.8 8.4c-.4.4-.6.9-.6 1.4 0 .6.2 1.1.6 1.4L11 14v5h2v-6.2zM19 12c-2.8 0-5 2.2-5 5s2.2 5 5 5 5-2.2 5-5-2.2-5-5-5m0 8.5c-1.9 0-3.5-1.6-3.5-3.5s1.6-3.5 3.5-3.5 3.5 1.6 3.5 3.5-1.6 3.5-3.5 3.5" style="fill:#fff;fill-rule:nonzero" transform="translate(7.618 13.804)scale(.93684)"/><path d="M143.858 112.125v9.25c0 2.553-2.324 4.625-5.187 4.625h-21.376c-2.863 0-5.187-2.072-5.187-4.625v-9.25c0-2.553 2.324-4.625 5.187-4.625h21.376c2.863 0 5.187 2.072 5.187 4.625" style="fill:#fff" transform="matrix(.71616 0 0 .80323 -60.16 -86.347)"/></svg>