<svg xmlns="http://www.w3.org/2000/svg" xml:space="preserve" style="fill-rule:evenodd;clip-rule:evenodd;stroke-linecap:round;stroke-linejoin:round;stroke-miterlimit:1.5" viewBox="0 0 35 36"><circle cx="28.148" cy="30.262" r="17.82" style="fill:#fff;stroke:currentColor;stroke-width:1.82px" transform="translate(-7.747 -4.812)scale(.82268)"/><path d="M7.82 19H15v-1c0-2.21 1.79-4 4-4h.74l-1.9-8.44A2.015 2.015 0 0 0 15.89 4H12v2h3.89l1.4 6.25h-.01A6.02 6.02 0 0 0 13.09 17H7.82a3.006 3.006 0 0 0-3.42-1.94c-1.18.23-2.13 1.2-2.35 2.38a3 3 0 0 0-.052.558A3.016 3.016 0 0 0 5 21c1.3 0 2.4-.84 2.82-2M5 19c-.55 0-1-.45-1-1s.45-1 1-1 1 .45 1 1-.45 1-1 1m14-4c-1.66 0-3 1.34-3 3s1.34 3 3 3 3-1.34 3-3-1.34-3-3-3m0 4c-.55 0-1-.45-1-1s.45-1 1-1 1 .45 1 1-.45 1-1 1" style="fill:currentColor;fill-rule:nonzero" transform="translate(5.359 9.614)scale(.83764)"/><path d="M143.858 112.125v9.25c0 2.553-2.324 4.625-5.187 4.625h-21.376c-2.863 0-5.187-2.072-5.187-4.625v-9.25c0-2.553 2.324-4.625 5.187-4.625h21.376c2.863 0 5.187 2.072 5.187 4.625" style="fill:#fff" transform="matrix(.5797 0 0 .65018 -48.553 -69.894)"/></svg>