<svg xmlns="http://www.w3.org/2000/svg" xml:space="preserve" style="fill-rule:evenodd;clip-rule:evenodd;stroke-linecap:round;stroke-linejoin:round;stroke-miterlimit:1.5" viewBox="0 0 35 36"><circle cx="28.148" cy="30.262" r="17.82" style="fill:#fff;stroke:currentColor;stroke-width:1.82px" transform="translate(-7.747 -4.812)scale(.82268)"/><path d="M143.858 112.125v9.25c0 2.553-2.324 4.625-5.187 4.625h-21.376c-2.863 0-5.187-2.072-5.187-4.625v-9.25c0-2.553 2.324-4.625 5.187-4.625h21.376c2.863 0 5.187 2.072 5.187 4.625" style="fill:#fff" transform="matrix(.5797 0 0 .65018 -48.554 -69.894)"/><path d="M9.09 9a3.005 3.005 0 0 1 2.83-2.004c1.646 0 3 1.354 3 3V10c0 2-3 3-3 3M12 17h.01" style="fill:none;fill-rule:nonzero;stroke:currentColor;stroke-width:2px;stroke-miterlimit:4" transform="translate(.383 5.068)scale(1.2516)"/></svg>