<svg xmlns="http://www.w3.org/2000/svg" xml:space="preserve" style="fill-rule:evenodd;clip-rule:evenodd;stroke-linecap:round;stroke-linejoin:round;stroke-miterlimit:1.5" viewBox="0 0 35 36"><circle cx="28.148" cy="30.262" r="17.82" style="fill:#fff;stroke:currentColor;stroke-width:1.82px" transform="translate(-7.747 -4.812)scale(.82268)"/><path d="M19 15c.55 0 1 .45 1 1s-.45 1-1 1-1-.45-1-1 .45-1 1-1m0-2c-1.66 0-3 1.34-3 3s1.34 3 3 3 3-1.34 3-3-1.34-3-3-3m-9-7H5v2h5zm7-1h-3v2h3v2.65L13.5 14H10V9H6c-2.21 0-4 1.79-4 4v3h2c0 1.66 1.34 3 3 3s3-1.34 3-3h4.5l4.5-5.65V7c0-1.097-.903-2-2-2M7 17c-.55 0-1-.45-1-1h2c0 .55-.45 1-1 1" style="fill:currentColor;fill-rule:nonzero" transform="translate(5.107 9.781)scale(.85858)"/><path d="M143.858 112.125v9.25c0 2.553-2.324 4.625-5.187 4.625h-21.376c-2.863 0-5.187-2.072-5.187-4.625v-9.25c0-2.553 2.324-4.625 5.187-4.625h21.376c2.863 0 5.187 2.072 5.187 4.625" style="fill:#fff" transform="matrix(.5797 0 0 .65018 -48.554 -69.894)"/></svg>