<svg xmlns="http://www.w3.org/2000/svg" xml:space="preserve" style="fill-rule:evenodd;clip-rule:evenodd;stroke-linecap:round;stroke-linejoin:round;stroke-miterlimit:1.5" viewBox="0 0 35 36"><circle cx="28.148" cy="30.262" r="17.82" style="fill:#fff;stroke:currentColor;stroke-width:1.82px" transform="translate(-7.747 -4.812)scale(.82268)"/><path d="M18.92 6.01C18.72 5.42 18.16 5 17.5 5h-11c-.66 0-1.21.42-1.42 1.01L3 12v8c0 .55.45 1 1 1h1c.55 0 1-.45 1-1v-1h12v1c0 .55.45 1 1 1h1c.55 0 1-.45 1-1v-8zM6.5 16c-.83 0-1.5-.67-1.5-1.5S5.67 13 6.5 13s1.5.67 1.5 1.5S7.33 16 6.5 16m11 0c-.83 0-1.5-.67-1.5-1.5s.67-1.5 1.5-1.5 1.5.67 1.5 1.5-.67 1.5-1.5 1.5M5 11l1.5-4.5h11L19 11z" style="fill:currentColor;fill-rule:nonzero" transform="translate(5.253 9.08)scale(.84643)"/><path d="M143.858 112.125v9.25c0 2.553-2.324 4.625-5.187 4.625h-21.376c-2.863 0-5.187-2.072-5.187-4.625v-9.25c0-2.553 2.324-4.625 5.187-4.625h21.376c2.863 0 5.187 2.072 5.187 4.625" style="fill:#fff" transform="matrix(.5797 0 0 .65018 -48.553 -69.894)"/></svg>