<svg xmlns="http://www.w3.org/2000/svg" xml:space="preserve" style="fill-rule:evenodd;clip-rule:evenodd;stroke-linecap:round;stroke-linejoin:round;stroke-miterlimit:1.5" viewBox="0 0 43 44"><circle cx="28.148" cy="30.262" r="17.82" style="fill:currentColor;stroke:#fff;stroke-width:1.48px" transform="translate(-9.748 -5.944)scale(1.01633)"/><path d="M9.09 9a3.005 3.005 0 0 1 2.83-2.004c1.646 0 3 1.354 3 3V10c0 2-3 3-3 3M12 17h.01" style="fill:none;fill-rule:nonzero;stroke:#fff;stroke-width:2px;stroke-miterlimit:4" transform="translate(2.017 7.978)scale(1.4031)"/><path d="M143.858 112.125v9.25c0 2.553-2.324 4.625-5.187 4.625h-21.376c-2.863 0-5.187-2.072-5.187-4.625v-9.25c0-2.553 2.324-4.625 5.187-4.625h21.376c2.863 0 5.187 2.072 5.187 4.625" style="fill:#fff" transform="matrix(.71616 0 0 .80323 -60.16 -86.347)"/></svg>